<?xml version="1.0" encoding="UTF-8"?>
<!-- Generated by jsxcad -->
<!DOCTYPE svg PUBLIC "-//W3C//DTD SVG 1.1 Tiny//EN" "http://www.w3.org/Graphics/SVG/1.1/DTD/svg11-tiny.dtd">
<svg baseProfile="tiny" height="5.997368490296578mm" width="5.9986841008490766mm" viewBox="0 0 5.9986841008490766 5.997368490296578" version="1.1" stroke="black" stroke-width=".1" fill="none" xmlns="http://www.w3.org/2000/svg">
<path fill="#b0e0e6" stroke="#b0e0e6" d="M2.99934 5.99868 L2.74831 5.98816 L2.49904 5.95667 L2.25327 5.90443 L2.01274 5.83181 L1.77913 5.73932 L1.55408 5.6276 L1.33917 5.49745 L1.1359 5.34976 L0.9457 5.18559 L0.76991 5.00608 L0.60975 4.81248 L0.46636 4.60616 L0.34073 4.38857 L0.23375 4.16123 L0.14617 3.92574 L0.07861 3.68374 L0.03153 3.43693 L0.00526 3.18706 L0 2.93586 L0.01578 2.6851 L0.05248 2.43654 L0.10985 2.19192 L0.1875 1.95297 L0.28486 1.72135 L0.40127 1.49868 L0.53589 1.28654 L0.6878 1.08641 L0.85592 0.89969 L1.03908 0.7277 L1.23599 0.57163 L1.44526 0.43259 L1.66544 0.31155 L1.89497 0.20935 L2.13225 0.12673 L2.37561 0.06424 L2.62334 0.02234 L2.87372 0.00132 L3.12497 0.00132 L3.37534 0.02234 L3.62308 0.06424 L3.86644 0.12673 L4.10372 0.20935 L4.33325 0.31155 L4.55342 0.43259 L4.7627 0.57163 L4.9596 0.7277 L5.14276 0.89969 L5.31088 1.08641 L5.46279 1.28654 L5.59742 1.49868 L5.71382 1.72135 L5.81119 1.95297 L5.88883 2.19192 L5.9462 2.43654 L5.98291 2.6851 L5.99868 2.93586 L5.99342 3.18706 L5.96716 3.43693 L5.92008 3.68374 L5.85251 3.92574 L5.76493 4.16123 L5.65795 4.38857 L5.53233 4.60616 L5.38893 4.81248 L5.22878 5.00608 L5.05298 5.18559 L4.86279 5.34976 L4.65952 5.49745 L4.4446 5.6276 L4.21955 5.73932 L3.98594 5.83181 L3.74541 5.90443 L3.49965 5.95667 L3.25038 5.98816 z"/>
<path fill="#b0e0e6" stroke="#b0e0e6" d="M2.9993401812079905 5.998684323491674 L2.9993401812079905 5.998684323491674 L3.250380110356916 5.9881626330362545 L3.250380110356916 5.9881626330362545 z"/>
<path fill="#b0e0e6" stroke="#b0e0e6" d="M3.2503802815883502 5.988162229001314 L3.2503802815883502 5.988162229001314 L3.4996502661490276 5.956672106786492 L3.4996502661490276 5.956672106786492 z"/>
<path fill="#b0e0e6" stroke="#b0e0e6" d="M4.21955047982499 5.739321211899588 L4.21955047982499 5.739321211899588 L3.9859414183853605 5.831813582432486 L3.9859414183853605 5.831813582432486 z"/>
<path fill="#b0e0e6" stroke="#b0e0e6" d="M3.7454111746823138 5.904433890735532 L3.7454111746823138 5.904433890735532 L3.985941094849339 5.831813626315965 L3.985941094849339 5.831813626315965 z"/>
<path fill="#b0e0e6" stroke="#b0e0e6" d="M3.74541083226733 5.904433915509938 L3.74541083226733 5.904433915509938 L3.4996504053150668 5.956671906857467 L3.4996504053150668 5.956671906857467 z"/>
<path fill="#b0e0e6" stroke="#b0e0e6" d="M4.659518213240737 5.497447049709789 L4.659518213240737 5.497447049709789 L4.444602723388286 5.627604496848551 L4.444602723388286 5.627604496848551 z"/>
<path fill="#b0e0e6" stroke="#b0e0e6" d="M4.444602314156834 5.6276046618387126 L4.444602314156834 5.6276046618387126 L4.219550637536113 5.739321284308173 L4.219550637536113 5.739321284308173 z"/>
<path fill="#b0e0e6" stroke="#b0e0e6" d="M5.22877625960437 5.006076337133978 L5.22877625960437 5.006076337133978 L5.052981783066832 5.185591746108049 L5.052981783066832 5.185591746108049 z"/>
<path fill="#b0e0e6" stroke="#b0e0e6" d="M4.8627903160565324 5.349760366155016 L4.8627903160565324 5.349760366155016 L5.052981501108941 5.185591739051447 L5.052981501108941 5.185591739051447 z"/>
<path fill="#b0e0e6" stroke="#b0e0e6" d="M4.862790603293101 5.349760830361717 L4.862790603293101 5.349760830361717 L4.659517892623987 5.497447099445757 L4.659517892623987 5.497447099445757 z"/>
<path fill="#b0e0e6" stroke="#b0e0e6" d="M5.532329356005387 4.606159552412084 L5.532329356005387 4.606159552412084 L5.3889319617623785 4.812481363460371 L5.3889319617623785 4.812481363460371 z"/>
<path fill="#b0e0e6" stroke="#b0e0e6" d="M5.3889318521015 4.812481532191612 L5.3889318521015 4.812481532191612 L5.228776004996415 5.006076695045609 L5.228776004996415 5.006076695045609 z"/>
<path fill="#b0e0e6" stroke="#b0e0e6" d="M5.657953108888402 4.388571794917556 L5.657953108888402 4.388571794917556 L5.532328875083674 4.606159350529256 L5.532328875083674 4.606159350529256 z"/>
<path fill="#b0e0e6" stroke="#b0e0e6" d="M5.764931619309188 4.161230761989064 L5.764931619309188 4.161230761989064 L5.65795318821452 4.388571500259874 L5.65795318821452 4.388571500259874 z"/>
<path fill="#b0e0e6" stroke="#b0e0e6" d="M5.764931650487729 4.161230613810884 L5.764931650487729 4.161230613810884 L5.852509846017553 3.9257399427344413 L5.852509846017553 3.9257399427344413 z"/>
<path fill="#b0e0e6" stroke="#b0e0e6" d="M5.811188994010677 1.9529704228789726 L5.811188994010677 1.9529704228789726 L5.713824022715295 1.7213483090061965 L5.713824022715295 1.7213483090061965 z"/>
<path fill="#b0e0e6" stroke="#b0e0e6" d="M5.967159695774945 3.4369299419659667 L5.967159695774945 3.4369299419659667 L5.9200782238287015 3.6837396611772038 L5.9200782238287015 3.6837396611772038 z"/>
<path fill="#b0e0e6" stroke="#b0e0e6" d="M5.9200780343142325 3.683739451170672 L5.9200780343142325 3.683739451170672 L5.852510247709606 3.9257400691617645 L5.852510247709606 3.9257400691617645 z"/>
<path fill="#b0e0e6" stroke="#b0e0e6" d="M5.888828368834991 2.1919205299976388 L5.888828368834991 2.1919205299976388 L5.811188765538984 1.952970401100698 L5.811188765538984 1.952970401100698 z"/>
<path fill="#b0e0e6" stroke="#b0e0e6" d="M5.9829078171850645 2.6851001373310748 L5.9829078171850645 2.6851001373310748 L5.998684273589492 2.935859731128539 L5.998684273589492 2.935859731128539 z"/>
<path fill="#b0e0e6" stroke="#b0e0e6" d="M5.993422146868159 3.187060044970477 L5.993422146868159 3.187060044970477 L5.998684035933388 2.9358600845407525 L5.998684035933388 2.9358600845407525 z"/>
<path fill="#b0e0e6" stroke="#b0e0e6" d="M5.993421775055398 3.18706018656584 L5.993421775055398 3.18706018656584 L5.967159405960715 3.436929937563955 L5.967159405960715 3.436929937563955 z"/>
<path fill="#b0e0e6" stroke="#b0e0e6" d="M5.946203537322274 2.4365391703285506 L5.946203537322274 2.4365391703285506 L5.8888287003986335 2.191920304818748 L5.8888287003986335 2.191920304818748 z"/>
<path fill="#b0e0e6" stroke="#b0e0e6" d="M5.946203677906131 2.436539456894074 L5.946203677906131 2.436539456894074 L5.982907950253188 2.685100302680275 L5.982907950253188 2.685100302680275 z"/>
<path fill="#b0e0e6" stroke="#b0e0e6" d="M5.462788167833555 1.286541162728182 L5.462788167833555 1.286541162728182 L5.597416840276923 1.498682005221239 L5.597416840276923 1.498682005221239 z"/>
<path fill="#b0e0e6" stroke="#b0e0e6" d="M5.5974168919253655 1.4986816248621517 L5.5974168919253655 1.4986816248621517 L5.713824009485032 1.7213479038918797 L5.713824009485032 1.7213479038918797 z"/>
<path fill="#b0e0e6" stroke="#b0e0e6" d="M4.553420267668924 0.43258959712588135 L4.553420267668924 0.43258959712588135 L4.762697824933705 0.5716332737379518 L4.762697824933705 0.5716332737379518 z"/>
<path fill="#b0e0e6" stroke="#b0e0e6" d="M4.959601938932728 0.7276975536757246 L4.959601938932728 0.7276975536757246 L4.7626975660846265 0.5716330708369466 L4.7626975660846265 0.5716330708369466 z"/>
<path fill="#b0e0e6" stroke="#b0e0e6" d="M5.142757949094456 0.8996918466436457 L5.142757949094456 0.8996918466436457 L5.31087985062376 1.0864101344989707 L5.31087985062376 1.0864101344989707 z"/>
<path fill="#b0e0e6" stroke="#b0e0e6" d="M5.310880032514863 1.0864099753198757 L5.310880032514863 1.0864099753198757 L5.462788089786637 1.2865414499308587 L5.462788089786637 1.2865414499308587 z"/>
<path fill="#b0e0e6" stroke="#b0e0e6" d="M5.1427579342202225 0.899692199832028 L5.1427579342202225 0.899692199832028 L4.9596022699305395 0.72769758276949 L4.9596022699305395 0.72769758276949 z"/>
<path fill="#b0e0e6" stroke="#b0e0e6" d="M3.866441042410098 0.1267270066059454 L3.866441042410098 0.1267270066059454 L4.103718048990533 0.2093556025360335 L4.103718048990533 0.2093556025360335 z"/>
<path fill="#b0e0e6" stroke="#b0e0e6" d="M4.333249985757314 0.3115500319895943 L4.333249985757314 0.3115500319895943 L4.1037175111366455 0.2093555900786188 L4.1037175111366455 0.2093555900786188 z"/>
<path fill="#b0e0e6" stroke="#b0e0e6" d="M4.333249877382628 0.31155022304016955 L4.333249877382628 0.31155022304016955 L4.5534200961592735 0.43258982508693067 L4.5534200961592735 0.43258982508693067 z"/>
<path fill="#b0e0e6" stroke="#b0e0e6" d="M3.6230794744871235 0.06424204673751897 L3.6230794744871235 0.06424204673751897 L3.866440864862169 0.12672663158424566 L3.866440864862169 0.12672663158424566 z"/>
<path fill="#b0e0e6" stroke="#b0e0e6" d="M3.3753400254829704 0.022339849335630105 L3.3753400254829704 0.022339849335630105 L3.6230796827134606 0.0642418759106635 L3.6230796827134606 0.0642418759106635 z"/>
<path fill="#b0e0e6" stroke="#b0e0e6" d="M3.375340000487013 0.022339994200310662 L3.375340000487013 0.022339994200310662 L3.1249703470583556 0.001315866992266287 L3.1249703470583556 0.001315866992266287 z"/>
<path fill="#b0e0e6" stroke="#b0e0e6" d="M2.87372 0.0013157548517139794 L2.87372 0.0013157548517139794 L3.12497 0.0013157548517144235 L3.12497 0.0013157548517144235 z"/>
<path fill="#b0e0e6" stroke="#b0e0e6" d="M2.8737196116358983 0.0013153750952633473 L2.8737196116358983 0.0013153750952633473 L2.623340028227055 0.022340336147040864 L2.623340028227055 0.022340336147040864 z"/>
<path fill="#b0e0e6" stroke="#b0e0e6" d="M1.4452609881841465 0.4325914873367085 L1.4452609881841465 0.4325914873367085 L1.235990368497298 0.5716305546330207 L1.235990368497298 0.5716305546330207 z"/>
<path fill="#b0e0e6" stroke="#b0e0e6" d="M1.6654387535034756 0.3115477326312394 L1.6654387535034756 0.3115477326312394 L1.4452608555928557 0.4325915563176271 L1.4452608555928557 0.4325915563176271 z"/>
<path fill="#b0e0e6" stroke="#b0e0e6" d="M2.1322487702950492 0.12672521061542946 L2.1322487702950492 0.12672521061542946 L2.3756101606700946 0.0642406257687033 L2.3756101606700946 0.0642406257687033 z"/>
<path fill="#b0e0e6" stroke="#b0e0e6" d="M2.3756101532204457 0.06424090589367155 L2.3756101532204457 0.06424090589367155 L2.6233400885690843 0.02234052365187272 L2.6233400885690843 0.02234052365187272 z"/>
<path fill="#b0e0e6" stroke="#b0e0e6" d="M1.8949715129391098 0.2093533981168773 L1.8949715129391098 0.2093533981168773 L1.6654390383184405 0.3115478400278526 L1.6654390383184405 0.3115478400278526 z"/>
<path fill="#b0e0e6" stroke="#b0e0e6" d="M1.8949713129969963 0.20935377041378248 L1.8949713129969963 0.20935377041378248 L2.132248319577431 0.12672517448369472 L2.132248319577431 0.12672517448369472 z"/>
<path fill="#b0e0e6" stroke="#b0e0e6" d="M0.10985534041784369 2.1919217352069436 L0.10985534041784369 2.1919217352069436 L0.18749589862887944 1.9529686673837414 L0.18749589862887944 1.9529686673837414 z"/>
<path fill="#b0e0e6" stroke="#b0e0e6" d="M0.2848594623161248 1.7213497739785109 L0.2848594623161248 1.7213497739785109 L0.18749599270404044 1.9529683154878887 L0.18749599270404044 1.9529683154878887 z"/>
<path fill="#b0e0e6" stroke="#b0e0e6" d="M0.40126847513643743 1.4986792028205942 L0.40126847513643743 1.4986792028205942 L0.2848592111446089 1.7213495875963676 L0.2848592111446089 1.7213495875963676 z"/>
<path fill="#b0e0e6" stroke="#b0e0e6" d="M1.039079643275582 0.7276995499257966 L1.039079643275582 0.7276995499257966 L1.235990157878034 0.571630199192505 L1.235990157878034 0.571630199192505 z"/>
<path fill="#b0e0e6" stroke="#b0e0e6" d="M0.6878024141285042 1.0864121736910688 L0.6878024141285042 1.0864121736910688 L0.8559243156578074 0.8996938858357435 L0.8559243156578074 0.8996938858357435 z"/>
<path fill="#b0e0e6" stroke="#b0e0e6" d="M0.8559239874570923 0.8996942462105213 L0.8559239874570923 0.8996942462105213 L1.0390796517467764 0.7276996291479838 L1.0390796517467764 0.7276996291479838 z"/>
<path fill="#b0e0e6" stroke="#b0e0e6" d="M0.5358945120376991 1.2865434248230196 L0.5358945120376991 1.2865434248230196 L0.6878025693094746 1.0864119502120373 L0.6878025693094746 1.0864119502120373 z"/>
<path fill="#b0e0e6" stroke="#b0e0e6" d="M0.53589475561929 1.286543018007773 L0.53589475561929 1.286543018007773 L0.40126895427946424 1.4986793363655682 L0.40126895427946424 1.4986793363655682 z"/>
<path fill="#b0e0e6" stroke="#b0e0e6" d="M0.015776306922295067 2.6850997676512445 L0.015776306922295067 2.6850997676512445 L-1.8890862603236297e-7 2.9358599881148764 L-1.8890862603236297e-7 2.9358599881148764 z"/>
<path fill="#b0e0e6" stroke="#b0e0e6" d="M6.311711811666968e-8 2.9358599986778846 L6.311711811666968e-8 2.9358599986778846 L0.005261952182345886 3.187059959107609 L0.005261952182345886 3.187059959107609 z"/>
<path fill="#b0e0e6" stroke="#b0e0e6" d="M0.0524803354297959 2.4365400495319625 L0.0524803354297959 2.4365400495319625 L0.015776276485250647 2.685099450159179 L0.015776276485250647 2.685099450159179 z"/>
<path fill="#b0e0e6" stroke="#b0e0e6" d="M0.05248034969163577 2.4365400820194325 L0.05248034969163577 2.4365400820194325 L0.10985518661527696 2.1919212165096305 L0.10985518661527696 2.1919212165096305 z"/>
<path fill="#b0e0e6" stroke="#b0e0e6" d="M0.0315247593436609 3.4369305508151764 L0.0315247593436609 3.4369305508151764 L0.00526228098698255 3.1870597602586073 L0.00526228098698255 3.1870597602586073 z"/>
<path fill="#b0e0e6" stroke="#b0e0e6" d="M0.4663567005531334 4.6061619049365365 L0.4663567005531334 4.6061619049365365 L0.34072996674840467 4.388570019197816 L0.34072996674840467 4.388570019197816 z"/>
<path fill="#b0e0e6" stroke="#b0e0e6" d="M0.23375173810514002 4.161229182109803 L0.23375173810514002 4.161229182109803 L0.3407301691998068 4.388569920380614 L0.3407301691998068 4.388569920380614 z"/>
<path fill="#b0e0e6" stroke="#b0e0e6" d="M0.1461735565747997 3.925739006986473 L0.1461735565747997 3.925739006986473 L0.07860649314887241 3.6837409791304276 L0.07860649314887241 3.6837409791304276 z"/>
<path fill="#b0e0e6" stroke="#b0e0e6" d="M0.07860608414992858 3.683740746988351 L0.07860608414992858 3.683740746988351 L0.03152461220368534 3.436931027777114 L0.03152461220368534 3.436931027777114 z"/>
<path fill="#b0e0e6" stroke="#b0e0e6" d="M0.14617375656822146 3.925738602944801 L0.14617375656822146 3.925738602944801 L0.23375195209804622 4.1612292740212435 L0.23375195209804622 4.1612292740212435 z"/>
<path fill="#b0e0e6" stroke="#b0e0e6" d="M0.6097508033828393 4.81247944163438 L0.6097508033828393 4.81247944163438 L0.4663566662795931 4.606162316996041 L0.4663566662795931 4.606162316996041 z"/>
<path fill="#b0e0e6" stroke="#b0e0e6" d="M0.9457003102985577 5.185589696133202 L0.9457003102985577 5.185589696133202 L0.7699107290489196 5.00607928606255 L0.7699107290489196 5.00607928606255 z"/>
<path fill="#b0e0e6" stroke="#b0e0e6" d="M0.7699104927327958 5.006079592375981 L0.7699104927327958 5.006079592375981 L0.6097505825342834 4.81247951808573 L0.6097505825342834 4.81247951808573 z"/>
<path fill="#b0e0e6" stroke="#b0e0e6" d="M1.1358971652509227 5.349763284088414 L1.1358971652509227 5.349763284088414 L0.9457002497833704 5.18558971062318 L0.9457002497833704 5.18558971062318 z"/>
<path fill="#b0e0e6" stroke="#b0e0e6" d="M1.1358973586003804 5.34976363557468 L1.1358973586003804 5.34976363557468 L1.3391700692694943 5.49744990465872 L1.3391700692694943 5.49744990465872 z"/>
<path fill="#b0e0e6" stroke="#b0e0e6" d="M1.7791300759043858 5.739319808287405 L1.7791300759043858 5.739319808287405 L2.012739137344016 5.831812178820302 L2.012739137344016 5.831812178820302 z"/>
<path fill="#b0e0e6" stroke="#b0e0e6" d="M1.554078496582843 5.627603028614224 L1.554078496582843 5.627603028614224 L1.7791301732035638 5.739319651083683 L1.7791301732035638 5.739319651083683 z"/>
<path fill="#b0e0e6" stroke="#b0e0e6" d="M1.5540783770826934 5.627602679754985 L1.5540783770826934 5.627602679754985 L1.339170203710417 5.497449663634121 L1.339170203710417 5.497449663634121 z"/>
<path fill="#b0e0e6" stroke="#b0e0e6" d="M2.2532691679000743 5.904432756047919 L2.2532691679000743 5.904432756047919 L2.0127392477330477 5.831812491628353 L2.0127392477330477 5.831812491628353 z"/>
<path fill="#b0e0e6" stroke="#b0e0e6" d="M2.253269345001185 5.904433081527145 L2.253269345001185 5.904433081527145 L2.499039339680736 5.956673106557889 L2.499039339680736 5.956673106557889 z"/>
<path fill="#b0e0e6" stroke="#b0e0e6" d="M2.7483096257453123 5.988162962530902 L2.7483096257453123 5.988162962530902 L2.4990396411846345 5.956672840316081 L2.4990396411846345 5.956672840316081 z"/>
<path fill="#b0e0e6" stroke="#b0e0e6" d="M2.7483098792985072 5.9881628798503685 L2.7483098792985072 5.9881628798503685 L2.999339825983137 5.998684151916571 L2.999339825983137 5.998684151916571 z"/>
<path fill="#b0e0e6" stroke="#b0e0e6" d="M2.74831 5.98816 L2.99934 5.99868 L3.25038 5.98816 L3.49965 5.95667 L3.74541 5.90443 L3.98594 5.83181 L4.21955 5.73932 L4.4446 5.6276 L4.65952 5.49745 L4.86279 5.34976 L5.05298 5.18559 L5.22878 5.00608 L5.38893 4.81248 L5.53233 4.60616 L5.65795 4.38857 L5.76493 4.16123 L5.85251 3.92574 L5.92008 3.68374 L5.96716 3.43693 L5.99342 3.18706 L5.99868 2.93586 L5.98291 2.6851 L5.9462 2.43654 L5.88883 2.19192 L5.81119 1.95297 L5.71382 1.72135 L5.59742 1.49868 L5.46279 1.28654 L5.31088 1.08641 L5.14276 0.89969 L4.9596 0.7277 L4.7627 0.57163 L4.55342 0.43259 L4.33325 0.31155 L4.10372 0.20935 L3.86644 0.12673 L3.62308 0.06424 L3.37534 0.02234 L3.12497 0.00132 L2.87372 0.00132 L2.62334 0.02234 L2.37561 0.06424 L2.13225 0.12673 L1.89497 0.20935 L1.66544 0.31155 L1.44526 0.43259 L1.23599 0.57163 L1.03908 0.7277 L0.85592 0.89969 L0.6878 1.08641 L0.53589 1.28654 L0.40127 1.49868 L0.28486 1.72135 L0.1875 1.95297 L0.10985 2.19192 L0.05248 2.43654 L0.01578 2.6851 L0 2.93586 L0.00526 3.18706 L0.03153 3.43693 L0.07861 3.68374 L0.14617 3.92574 L0.23375 4.16123 L0.34073 4.38857 L0.46636 4.60616 L0.60975 4.81248 L0.76991 5.00608 L0.9457 5.18559 L1.1359 5.34976 L1.33917 5.49745 L1.55408 5.6276 L1.77913 5.73932 L2.01274 5.83181 L2.25327 5.90443 L2.49904 5.95667 z"/>
</svg>